<svg xmlns="http://www.w3.org/2000/svg" width="24" height="24">
  <defs><linearGradient id="a" x1="50%" x2="50%" y1="2.474%" y2="99.527%"><stop offset="0%" stop-color="#00BCD4"/><stop offset="100%" stop-color="#673AB7"/></linearGradient></defs><path fill="url(#a)" d="M20.69.606l-.4-.2c-2.1-1-4.7-.1-5.7 2.1l-3 6.5-3-6.5c-1.1-2.2-3.6-3.1-5.8-2.1l-.3.2c-2.1 1-3.1 3.6-2.1 5.7l7.1 15.3c.7 1.6 2.4 2.4 4 2.4 1.7.1 3.3-.8 4-2.4l7.1-15.3c1.1-2.2.2-4.7-1.9-5.7zm-17.8.9l.3-.1c1.7-.8 3.6 0 4.4 1.6l3.4 7.2-3.5 7.6c-.1.3-.2.5-.3.8l-5.9-12.7c-.7-1.7 0-3.7 1.6-4.4zm10.1 21l-.2.1c-.4.2-.8.3-1.2.3-.4 0-.8-.1-1.3-.3l-.2-.1c-1.7-.8-2.5-2.8-1.7-4.4l3.2-6.8 3.2 6.8c.7 1.7-.1 3.7-1.8 4.4zm8.8-16.6l-5.9 12.6c-.1-.3-.2-.5-.3-.8l-3.5-7.6 3.4-7.2c.8-1.7 2.8-2.4 4.4-1.6l.3.1c1.7.8 2.4 2.8 1.6 4.5z"/>
</svg>