<svg xmlns="http://www.w3.org/2000/svg" width="38" height="28">
    <g fill="none"><path fill="#00BCD4" d="M4.5 24.376c4.421-1.371 5-5.181 5-8.376v-1.5h6V16c0 6.604-4.497 11.265-11 11.491v-3.115z"/><path fill="#673AB7" d="M15 15v1c0 6.138-4.062 10.521-10 10.963v-2.226c4.463-1.583 5-5.706 5-8.737v-1h5zm1-1H9v2c0 3.498-.759 6.869-5 8v4c6.996 0 12-5.004 12-12v-2z"/><path fill="#00BCD4" d="M.5.5h15v15H.5z"/><path fill="#673AB7" d="M15 1v14H1V1h14zm1-1H0v16h16V0z"/><path fill="#00BCD4" d="M15 16l-5 1v-3h5zm11.5 8.376c4.421-1.371 5-5.181 5-8.376v-1.5h6V16c0 6.604-4.497 11.265-11 11.491v-3.115z"/><path fill="#673AB7" d="M37 15v1c0 6.138-4.062 10.521-10 10.963v-2.226c4.463-1.583 5-5.706 5-8.737v-1h5zm1-1h-7v2c0 3.498-.759 6.869-5 8v4c6.996 0 12-5.004 12-12v-2z"/><path fill="#00BCD4" d="M22.5.5h15v15h-15z"/><path fill="#673AB7" d="M37 1v14H23V1h14zm1-1H22v16h16V0z"/><path fill="#00BCD4" d="M37 16l-5 1v-3h5z"/></g>
</svg>