<svg xmlns="http://www.w3.org/2000/svg" width="36" height="27">
  <g fill="none" fill-rule="evenodd"><g fill-rule="nonzero"><path fill="#00BCD4" d="M18 4.354l1.144-1.17a4.239 4.239 0 0 1 3.046-1.288h3.76L36 .964v12.663h-3.51l-3.609 2.766L18 4.353z"/><path fill="#673AB7" d="M35.053 1.056v11.48h-3.158l-.253.193-3.105 2.37L18.366 3.884l.81-.825a3.733 3.733 0 0 1 2.68-1.13h3.766l.042-.004 9.389-.87zM36 0L25.579.964h-3.722a4.699 4.699 0 0 0-3.35 1.412l-1.454 1.481L28.42 16.393l3.79-2.893H36V0z"/></g><g fill-rule="nonzero"><path fill="#C3F8FF" d="M19.421 26.518c-.836 0-1.581-.577-1.812-1.402l-.205-.732-.235.21L6.842 13.017H.474V.528l9.904.916 4.623.002c1.172 0 2.306.5 3.11 1.372l7.2 7.818 3.392 3.607.06.035a2.178 2.178 0 0 1 1.08 1.874 2.145 2.145 0 0 1-2.032 2.157l-.602.029.17.588c.064.228.095.419.095.6 0 1.197-.957 2.17-2.132 2.17-.187 0-.38-.032-.61-.103l-.709-.218.103.747c.019.13.03.212.03.298 0 1.196-.956 2.17-2.13 2.17-.046 0-.09-.008-.134-.014l-.532-.061-.082.437a1.901 1.901 0 0 1-1.857 1.566z"/><path fill="#673AB7" d="M.947 1.056l9.388.869.043.004h4.623c1.043 0 2.05.444 2.764 1.218l7.209 7.827 3.34 3.552.095.1.118.07c.527.307.841.852.841 1.456 0 .897-.694 1.633-1.58 1.676l-1.2.058.335 1.174c.052.183.077.332.077.467 0 .93-.744 1.687-1.658 1.687-.138 0-.289-.026-.474-.083l-1.414-.433.203 1.49.007.054c.009.059.02.117.02.178 0 .93-.743 1.687-1.653 1.687-.025 0-.05-.006-.074-.01l-.11-.014-.87-.096-.163.874a1.426 1.426 0 0 1-1.393 1.175 1.426 1.426 0 0 1-1.357-1.053l-.433-1.453-.427.384-9.871-11.062-.282-.316H.947V1.056zM0 0v13.5h6.632l10.5 11.767.021-.02C17.436 26.257 18.34 27 19.421 27c1.156 0 2.115-.843 2.324-1.957.094.01.185.028.281.028 1.44 0 2.606-1.187 2.606-2.651 0-.126-.02-.245-.036-.365.237.072.485.124.746.124 1.44 0 2.605-1.187 2.605-2.652 0-.258-.047-.5-.114-.736 1.381-.067 2.483-1.218 2.483-2.64 0-.985-.535-1.834-1.318-2.291l-3.34-3.554-7.201-7.818A4.7 4.7 0 0 0 15 .964h-4.58L0 0z"/></g><g fill-rule="nonzero"><path fill="#00BCD4" d="M15.743 11.37c-.502 0-.981-.086-1.35-.243-.904-.385-1.437-.872-1.54-1.408-.121-.625.337-1.25.745-1.663l5.243-5.339a4.203 4.203 0 0 1 3.016-1.27h3.248v5.785h-1.42c-.841 0-1.99.449-2.616 1.021L19.206 9.96c-1.341 1.227-2.745 1.41-3.463 1.41z"/><path fill="#673AB7" d="M24.632 1.929V6.75h-.948c-.959 0-2.219.492-2.93 1.145L18.89 9.6c-1.223 1.12-2.496 1.288-3.146 1.288-.595 0-.987-.13-1.167-.207-.73-.311-1.189-.696-1.258-1.055-.062-.32.162-.769.615-1.23l5.245-5.338a3.728 3.728 0 0 1 2.678-1.13h2.775zm.947-.965h-3.722a4.699 4.699 0 0 0-3.35 1.412l-5.244 5.338c-1.342 1.367-1.316 2.893.948 3.857.398.17.93.281 1.533.281 1.14 0 2.535-.395 3.78-1.534l1.863-1.706c.538-.494 1.572-.898 2.297-.898h1.895V.964z"/></g><path fill="#00BCD4" fill-rule="nonzero" d="M29.053 6.75l-3.474.964h-.947V6.75h-1.895V1.929h6.316z"/><g fill-rule="nonzero"><path fill="#00BCD4" d="M16.579 26.518c-.9 0-1.68-.65-1.857-1.546l-.077-.388h-.387l-.095.008c-1.259-.003-2.32-1.085-2.32-2.413v-.483h-.475c-1.306 0-2.368-1.082-2.368-2.41v-.482h-.474c-1.306 0-2.368-1.082-2.368-2.411s1.062-2.41 2.368-2.41c1.307 0 2.369 1.081 2.369 2.41v.482h.473c1.307 0 2.369 1.082 2.369 2.41v.483h.474c1.306 0 2.368 1.082 2.368 2.41v.396l.375.125c.88.18 1.52.975 1.52 1.89 0 1.064-.85 1.929-1.895 1.929z"/><path fill="#673AB7" d="M8.526 14.464c1.045 0 1.895.865 1.895 1.929v.964h.947c1.045 0 1.895.865 1.895 1.929v.964h.948c1.027 0 1.866.837 1.893 1.877l-.003.02v.063l-.015.805.775.158A1.44 1.44 0 0 1 18 24.589c0 .798-.638 1.447-1.421 1.447a1.43 1.43 0 0 1-1.393-1.16l-.155-.788-.79.014c-.026 0-.05.002-.075.004-1.024-.024-1.85-.88-1.85-1.927v-.965h-.948c-1.045 0-1.894-.865-1.894-1.928v-.965h-.948c-1.045 0-1.894-.865-1.894-1.928 0-1.064.85-1.929 1.894-1.929zm0-.964c-1.57 0-2.842 1.295-2.842 2.893 0 1.598 1.273 2.893 2.842 2.893 0 1.598 1.273 2.893 2.842 2.893 0 1.597 1.273 2.892 2.843 2.892.016 0 .03-.004.047-.004.218 1.102 1.174 1.933 2.32 1.933 1.31 0 2.37-1.079 2.37-2.41a2.402 2.402 0 0 0-1.9-2.363c0-.017.005-.032.005-.048 0-1.598-1.273-2.893-2.842-2.893 0-1.598-1.273-2.893-2.843-2.893 0-1.598-1.272-2.893-2.842-2.893z"/></g><path stroke="#673AB7" stroke-linecap="round" d="M26.526 17.357l1.11 1.13m-4.426 2.245l1.11 1.13m-3.478 2.245l.698.71"/><path fill="#673AB7" fill-rule="nonzero" d="M24.158 6.75h.947a.48.48 0 0 1 .474.482.48.48 0 0 1-.474.482h-.947a.48.48 0 0 1-.474-.482.48.48 0 0 1 .474-.482z"/></g>
</svg>