<svg xmlns="http://www.w3.org/2000/svg" width="23" height="24">
    <path fill="#5A5A5A" d="M20.634.606l-.398-.2c-2.095-1-4.688-.1-5.685 2.099l-2.992 6.496-2.992-6.496C7.47.306 4.977-.593 2.783.406l-.3.2C.39 1.606-.606 4.204.39 6.303l7.081 15.29c.698 1.6 2.394 2.4 3.99 2.4 1.695.1 3.29-.8 3.989-2.4l7.08-15.29c1.097-2.199.2-4.698-1.895-5.697zm-17.751.9l.299-.1c1.695-.8 3.59 0 4.388 1.599l3.39 7.195-3.49 7.596c-.1.3-.2.5-.299.8L1.287 5.903c-.698-1.699 0-3.698 1.596-4.397zm10.072 20.987l-.2.1c-.398.2-.797.3-1.196.3-.399 0-.798-.1-1.296-.3l-.2-.1c-1.695-.8-2.493-2.798-1.695-4.397l3.191-6.796 3.191 6.796c.699 1.699-.1 3.698-1.795 4.397zm8.777-16.59l-5.885 12.593c-.1-.3-.199-.5-.299-.8l-3.49-7.595 3.39-7.196c.798-1.7 2.793-2.399 4.389-1.6l.299.1c1.695.8 2.393 2.799 1.596 4.498z"/>
</svg>