<svg xmlns="http://www.w3.org/2000/svg" width="36" height="35">
  <g fill="none" fill-rule="evenodd"><g fill-rule="nonzero"><path fill="#FFF" d="M.474 31.737V.474h33.158v19.225L21.593 31.737z"/><path fill="#673AB7" d="M33.158.947v18.556l-11.76 11.76H.947V.947h32.21zM34.105 0H0v32.21h21.79l12.315-12.315V0z"/></g><path d="M34.105 19.895v-4.737h-.947v5.684zM22.737 31.263h-5.684v.948h4.736z" fill="#FFF" fill-rule="nonzero"/><path fill="#00BCD4" fill-rule="nonzero" d="M.947.947h32.211v4.737H.947z"/><path stroke="#673AB7" stroke-linecap="round" d="M10.895 12.79H27m-16.105 3.789H27m-16.105 3.789H27m-16.105 3.79H23.21"/><path fill="#673AB7" fill-rule="nonzero" d="M33.632 16.105a.475.475 0 0 1-.474-.473v-1.895c0-.26.213-.474.474-.474.26 0 .473.213.473.474v1.895c0 .26-.213.473-.473.473zm-18 15.158h1.894c.26 0 .474.213.474.474 0 .26-.213.474-.474.474h-1.894a.475.475 0 0 1-.474-.474c0-.26.213-.474.474-.474z"/><g fill-rule="nonzero"><path fill="#C3F8FF" d="M21.093 30.007l1.578-1.578 3.113 2.71-1.772 1.772-4.326 1.406z"/><path fill="#673AB7" d="M22.693 29.076l2.396 2.087-1.332 1.332-3.33 1.083 1.081-3.317 1.185-1.185zm-.044-1.295l-1.972 1.971-1.73 5.303 5.319-1.73 2.211-2.21-3.828-3.334z"/><path fill="#673AB7" d="M19.953 31.981l-1.004 3.075 3.085-1.002z"/><path fill="#00BCD4" d="M31.174 19.915l.839-.838a2.044 2.044 0 0 1 1.455-.602 2.06 2.06 0 0 1 1.455 3.514l-.838.837-2.91-2.911z"/><path fill="#673AB7" d="M33.468 18.947c.423 0 .821.165 1.12.465.3.299.465.697.465 1.12 0 .424-.165.822-.465 1.121l-.502.502-2.241-2.241.502-.502c.3-.3.697-.465 1.12-.465zm0-.947a2.52 2.52 0 0 0-1.79.742l-1.173 1.172 3.581 3.58 1.172-1.171A2.532 2.532 0 0 0 33.468 18z"/><path fill="#00BCD4" d="M24.53 32.391a1.253 1.253 0 0 0-.112-.152 1.43 1.43 0 0 0-.852-.469c-.167-.751-.76-1.147-1.311-1.288a1.455 1.455 0 0 0-.676-.962l8.068-8.076 2.911 2.91-8.028 8.037z"/><path fill="#673AB7" d="M29.646 22.113l2.241 2.242-7.342 7.35a1.888 1.888 0 0 0-.597-.323c-.242-.667-.77-1.073-1.31-1.276a1.896 1.896 0 0 0-.365-.61l7.373-7.383zm0-1.34l-8.968 8.98h.014c.13 0 1.132.035 1.132 1.14 0 0 1.315.041 1.315 1.314 1.307 0 1.128 1.12 1.128 1.12l8.961-8.972-3.582-3.582z"/><g><path fill="#C3F8FF" d="M29.208 21.881l2.18-2.18 2.911 2.912-2.18 2.18z"/><path fill="#673AB7" d="M31.388 20.371l2.242 2.242-1.51 1.51-2.242-2.242 1.51-1.51zm0-1.34l-2.85 2.85 3.582 3.581 2.85-2.85-3.582-3.58z"/></g></g></g>
</svg>