<svg xmlns="http://www.w3.org/2000/svg" xmlns:xlink="http://www.w3.org/1999/xlink" width="609" height="194">
    <defs><path id="a" d="M366.552 188.383c131.493 0 231.598 3.967 238.721-30.201 11.827-56.73-10.92-80.525-46.36-101.373C523.47 35.961 528.652 0 434.504 0c-53.63 0-78.931 9.448-121.815 26.04C246.71 51.57 135.367 7.386 100.177 38.35S-23.829 105.336 7.141 158.182c30.971 52.845 290.618 30.201 359.41 30.201z"/></defs><g fill="none" fill-rule="evenodd"><mask id="b" fill="#fff"><use xlink:href="#a"/></mask><use fill="#E9F9FB" xlink:href="#a"/><path fill="#CDF5FA" d="M427.679 176.415c27.786 0 85.06 9.131 85.06-34.672 0-25.386-31.971-65.266-50.13-91.894C449.436 30.53 429.728 8 424.713 8c-4.754 0-12.648 21.134-23.768 41.85-8.44 15.725-30.654 33.697-38.448 50.15-7.703 16.26-3.59 18.443-8.632 30.192-16.583 38.647 46.029 46.223 73.815 46.223zm-212.362-7.532c21.229 0 51.952 3.94 51.952-29.527 0-19.394-20.579-39.876-34.452-60.22C222.752 64.376 219.15 46 215.317 46c-6.39 0-25.337 37.561-39.135 66.69-5.885 12.422-11.142 17.69-14.994 26.666-12.67 29.527 32.9 29.527 54.129 29.527z" mask="url(#b)"/><path fill="#ABD9DE" d="M-1 148c70.477-3.818 121.68-5.019 153.609-3.603 20.557.912 87.337 7.264 203.521 3.603 56.91-1.793 110.804-14.266 193.838-14.266 18.112 0 38.123 4.756 60.032 14.266v52H-1c-4.592-18.333-6.624-31.476-6.094-39.431.529-7.955 2.56-12.144 6.094-12.569z" mask="url(#b)"/><g mask="url(#b)"><path fill="#B1F6FF" d="M176.396 133.59c9.465-1.14 17.013-4.085 20.968-13.29 4.607-10.727-17.32-13.372-17.32-20.407 0-12.28 5.468-18.76-10.684-27.438-10.82-5.812-14.369 7.127-16.833 15.23-1.47 4.83-9.451 4.943-12.098 9.522-5.494 9.504-7.13 16.103-3.462 21.19 3.074 4.265 8.604 10.44 12.866 12.157 10.365 4.175 21.528 3.64 26.563 3.035z"/><path fill="#7BCBD4" d="M165.87 149c4.346 0 7.13-.538 7.13-1.642 0-.794-1.403-1.198-4.04-1.521-1.032-.127-1.867-.837-3.09-.837-4.346 0-7.87.895-7.87 2 0 .563 1.414.843 2.887 1.206 1.417.35 2.852.794 4.983.794z"/><path fill="#057B8A" d="M162.778 85.042c-.155 1.044 1.636 13.96 2.027 20.306.187 3.036 0 10.998 0 18.79-2.77-4.672-3.466-5.895-6.364-9.264-1.451-1.687-4.65-4.896-6.542-7.375-3.047-3.994-4.309-5.99-3.783-5.99.257 1.752 2.257 4.859 5.998 9.318 3.096 3.692 3.783 4.428 6.445 8.172 1.071 1.508 3.27 4.44 3.866 7.551.173.907 0 3.804 0 5.43 0 .45-.207 5.123-.62 14.02h1.988c.07 0-.015-12.637 0-12.822.111-1.367 0-13.047 0-14.527 0-.539 2.835-1.473 5.215-3.777 2.087-2.02 5.988-6.756 5.992-7.375 0-.069-3.903 4.685-6.89 6.947-2.987 2.262-4.317 2.476-4.317 2.45.039-5.197.09-12.143-.42-15.388-.662-4.194-2.466-17.341-2.595-16.466z"/></g><path fill="#26B2C4" d="M556.155 140.288c2.997-17.285 14.596-34.403 34.796-51.354-13.84 14.663-21.02 35.86-21.54 63.592-.468 25.042-8.42 44.518-18.31 61.562-2.108 3.634-3.842 3.634-5.2 0l-14.475.956s20.234-48.828 24.73-74.756z" mask="url(#b)"/><path fill="#26B2C4" d="M555.165 170.7c-4.347-27.96-13.202-49.094-26.564-63.403 7.859 14.177 12.047 35.131 12.566 62.863.468 25.042-5.19 32.767 4.7 49.81 2.108 3.635 3.841 3.635 5.2 0h44.03s-33.41-7.332-39.932-49.27z" mask="url(#b)"/><path fill="#26B2C4" d="M549.408 191.207c15.815 28.044 23.488 16.32 23.488 16.32s-18.651 12.59-23.488 8.549c-15.123-12.633-10.021-18.045-19.026-41.417-9.972-25.882-17.376-28.987-26.082-26.334 9.152-10.068 20.336-3.883 28.665 9.092 4.508 7.02 10.849 24.166 16.443 33.79z" mask="url(#b)"/><path fill="#26B2C4" d="M564.949 173.024c2.584-23.92 11.943-37.027 28.077-39.32-14.056 9.225-20.679 21.773-19.867 37.643.734 14.332 1.302 10.895-3.67 21.032-1.59 3.242-14.286.999-14.286.999s8.003-1.99 9.746-20.354z" mask="url(#b)"/><g mask="url(#b)"><g transform="translate(456 1)"><path fill="#A7F3FD" d="M47.611 66.357c10.926-1.316 24.533-.713 29.098-11.35 5.318-12.394-7.514-15.758-7.514-23.887C69.195 16.93 59.84 0 41.8 0 30.793 0 23.145 8.94 18.319 16.784c-3.055 4.966-9.349 4.863-13.228 9.498C1.893 30.104-1.744 39.673.926 43.397 2.604 45.737.857 53.61 5.091 59.49c3.549 4.928 12.76 7.927 17.56 10.205 8.595 4.08 19.149-2.637 24.96-3.337z"/><ellipse cx="37" cy="137.5" fill="#7BCBD4" rx="9" ry="2.5"/><path fill="#057B8A" d="M39.767 22.079c.181 1.97-1.926 26.317-2.386 38.282-.22 5.724 0 20.735 0 35.425 3.26-8.809 4.079-11.115 7.488-17.465 1.707-3.182 5.472-9.232 7.697-13.904 3.586-7.53 5.73-15.35 6.434-23.458-.257 9.43-2.586 18.348-6.988 26.756-3.643 6.959-6.504 11.323-9.634 18.382-1.261 2.842-3.85 8.37-4.55 14.236-.204 1.709 0 7.17 0 10.235 0 .848.244 9.659.73 26.432h-2.34c-.081 0 .018-23.824 0-24.172-.13-2.579 0-24.597 0-27.387 0-2.323-.006-4.514-.015-6.586 0-.264-6.355-3.618-10.613-12.276-2.114-4.299-3.324-8.162-4.16-13.457-.48-3.04-.558-7.78-.235-14.224.312 10.322 1.054 16.944 2.226 19.866 1.88 4.687 3.34 7.937 5.15 10.652 3.93 5.895 7.633 8 7.632 7.903-.046-9.797-.091-18.08.51-24.197.778-7.908 2.901-32.693 3.054-31.043z"/></g></g><g mask="url(#b)"><path fill="#B1F6FF" d="M45.705 137.812c6.01-.723 8.444 2.017 12.678-3.441 4.449-5.734-1.039-6.042-1.039-10.508 0-7.797-5.053-6.746-6.928-10.178-3.87-7.08-7.411-7.728-10.49-3.162-1.786 2.649-.117 5.443-1.798 8.35-3.488 6.035-4.411 14.67-1.933 16.37 5.567 3.815 6.313 2.954 9.51 2.57z"/><path fill="#7BCBD4" d="M47.247 149c2.897 0 4.753-.403 4.753-1.232 0-.595-.935-.898-2.693-1.14-.689-.095-1.245-.628-2.06-.628-2.898 0-5.247.672-5.247 1.5 0 .422.943.632 1.925.905.944.262 1.9.595 3.322.595z"/><path fill="#057B8A" d="M45.43 121.676c.117 1.891 0 6.851 0 11.706a54.323 54.323 0 0 0-3.95-5.772c-.224.158.214 1.015 1.315 2.57.665.94 2.03 2.765 2.4 4.704.107.565 0 2.37 0 3.382 0 .28-.129 3.192-.385 8.734h1.234c.043 0-.01-7.872 0-7.987.069-.852 0-8.128 0-9.05 0-.336 1.76-.917 3.237-2.353 1.296-1.259 3.716-4.209 3.719-4.594 0-.043-2.423 2.918-4.277 4.327-1.853 1.41-2.68 1.543-2.68 1.526.025-3.237-.855-11.147-.612-7.193z"/></g><g mask="url(#b)"><g transform="translate(63 53)"><path fill="#A7F3FD" d="M49.603 85.08c10.925-1.315 25.942-11.803 30.507-22.44 5.318-12.394-11.915-23.39-11.915-31.519C68.195 16.93 58.84 0 40.8 0 29.793 0 22.145 8.94 17.319 16.784c-3.055 4.966-10.173 4.207-13.228 9.498-6.342 10.982-4.234 35.366 0 41.245 3.549 4.928 9.931 12.063 14.85 14.047 11.965 4.823 24.85 4.207 30.662 3.507z"/><ellipse cx="37" cy="93.5" fill="#7BCBD4" rx="9" ry="2.5"/><path fill="#90E3EF" d="M49.603 85.08c6.104-.735 13.485-4.333 19.607-9.221.192-.153 4.41-3.914 7.79-8.194 2.695-3.414-5.78-13.66-17.442-16.355-14.354-3.316-30.14 3.97-40.616-4.31C7.309 37.806 4.692 25.24 4.09 26.282c-6.342 10.982-4.234 35.366 0 41.245 3.549 4.928 9.931 12.063 14.85 14.047 11.965 4.823 24.85 4.207 30.662 3.507z" opacity=".501"/><path fill="#057B8A" d="M38.767 22.049c.181 1.216-1.926 16.247-2.386 23.635-.22 3.534 0 12.801 0 21.871 3.26-5.439 4.079-6.863 7.488-10.783 1.707-1.964 5.472-5.7 7.697-8.584 3.586-4.65 5.07-6.974 4.451-6.974-.303 2.04-2.655 5.656-7.057 10.847-3.643 4.297-4.452 5.154-7.582 9.512-1.261 1.755-3.85 5.167-4.55 8.789-.204 1.055 0 4.427 0 6.32 0 .523.244 5.962.73 16.318h-2.34c-.081 0 .018-14.709 0-14.924-.13-1.592 0-15.185 0-16.908 0-1.434-.006-2.787-.015-4.066v-.949c-.046-6.048-.091-11.162.51-14.939.778-4.882 2.901-20.184 3.054-19.165z"/></g></g><path fill="#26B2C4" d="M58.599 199.336l-.054.044a2.31 2.31 0 0 1-.95.46 15 15 0 0 0 .89 1.21c6.589 1.912 11.7 1.01 11.7 1.01H59.44c1.731 1.561 2.787 1.003 2.787 1.003l-5.841-1.003H53.61c-2.644 1.8-4.767 2.68-6.368 2.637a.87.87 0 0 1-.108-.004c-1.14-.061-2.009-.604-2.604-1.63a29.991 29.991 0 0 1-.125-.217l-5.961.393c-.629.95-1.35.998-2.166.143l-.944.063s.182-.171.518-.58a9.323 9.323 0 0 1-.518-.805c-7.002-12.066-12.814-29.966-13.146-47.695-.55-29.449-2.293-39.021-4.188-49.624 0 0 5.72 14.952 13.591 58.845 1.635 9.116 4.255 16.105 7.381 21.458-1.411-9.706-1.445-20.652-1.64-31.06-.55-29.45-1.286-18.69-3.18-29.294 0 0 4.713-5.379 12.584 38.514a310.46 310.46 0 0 0 1.607 8.343c1.512-5.915 3.035-12.868 4.498-21.025C60.71 106.629 75.423 85 75.423 85c-1.895 10.603-8.276 32.646-8.827 62.095-.194 10.422-3.731 23.661-8.036 35.255 1.49-1.99 3.028-4.335 4.587-7.1 14.938-25.702 24.403-38.29 28.395-37.762-4.113 1.47-9.7 11.368-16.759 29.69-4.248 11.026-5.291 17.685-8.682 23.548.683-.97 1.38-2.07 2.086-3.321 8.559-14.726 15.955-19.04 22.19-12.943-6.887-1.016-12.353 3.725-16.398 14.223-3.652 9.48-2.295 7.42-8.429 12.545-1.213 1.013-4.567-.552-6.951-1.894z" mask="url(#b)"/><path fill="#FFF" d="M165.614 52.931c1.38 0 3.193-1.865 3.193-3.522 0-1.657.185-2.409-1.195-2.409-1.381 0-1.998.752-1.998 2.41 0 1.656-1.381 3.521 0 3.521zm-18.188 12.631c.96.993 3.56 1.001 4.752-.15 1.192-1.15 1.862-1.54.903-2.533-.96-.994-1.93-.915-3.121.236-1.192 1.15-3.493 1.453-2.534 2.447zm87.374-8.264c-1.207.669-1.888 3.18-1.085 4.628.803 1.45 1.006 2.197 2.213 1.528 1.208-.67 1.383-1.627.58-3.076s-.5-3.75-1.708-3.08zm18.565-10.958c.282-.667-.246-1.924-1.046-2.263-.8-.34-1.124-.583-1.407.084-.283.666-.046 1.118.753 1.457.8.34 1.417 1.388 1.7.721zm83.167-13.887c-.362-.626-1.684-.96-2.436-.526-.752.434-1.142.547-.78 1.174.361.627.865.71 1.617.276.752-.435 1.96-.297 1.599-.924zm60.705-3.931c.911-1.125.588-3.833-.762-4.926s-1.841-1.74-2.752-.615c-.91 1.125-.705 2.124.645 3.217s1.958 3.449 2.87 2.324zm73.382.738c.455-.562.293-1.915-.382-2.462-.675-.546-.92-.87-1.375-.308-.456.563-.353 1.062.322 1.609.675.547.98 1.724 1.435 1.162zm60.819 75.648c.985 1.517 4.33 2.178 6.15.996 1.821-1.183 2.78-1.516 1.795-3.034-.986-1.517-2.253-1.659-4.074-.476-1.82 1.182-4.856.996-3.871 2.514z"/><path fill="#8BD5DD" d="M195.028 177.075c.063 1.808 2.59 4.097 4.76 4.021 2.169-.075 3.163.133 3.1-1.676-.064-1.808-1.077-2.582-3.247-2.506-2.17.076-4.676-1.647-4.613.161zm59 8c.063 1.808 2.59 4.097 4.76 4.021 2.169-.075 3.163.133 3.1-1.676-.064-1.808-1.077-2.582-3.247-2.506-2.17.076-4.676-1.647-4.613.161zm269-49c.063 1.808 2.59 4.097 4.76 4.021 2.169-.075 3.163.133 3.1-1.676-.064-1.808-1.077-2.582-3.247-2.506-2.17.076-4.676-1.647-4.613.161zM150.73 148.831c-.53 1.73 1.114 4.717 3.19 5.352 2.077.634 2.949 1.155 3.478-.576.529-1.73-.178-2.792-2.254-3.426-2.076-.635-3.885-3.08-4.414-1.35zm-31.92 14.504c-.78.754-.786 2.8.119 3.737.904.937 1.21 1.463 1.992.71.78-.755.719-1.518-.186-2.455s-1.143-2.746-1.924-1.992zm36 16c-.78.754-.786 2.8.119 3.737.904.937 1.21 1.463 1.992.71.78-.755.719-1.518-.186-2.455s-1.143-2.746-1.924-1.992zm-64-16c-.78.754-.786 2.8.119 3.737.904.937 1.21 1.463 1.992.71.78-.755.719-1.518-.186-2.455s-1.143-2.746-1.924-1.992zm419 5c-.78.754-.786 2.8.119 3.737.904.937 1.21 1.463 1.992.71.78-.755.719-1.518-.186-2.455s-1.143-2.746-1.924-1.992zm-396.304-19.499c.248.68 1.491 1.239 2.308.942.816-.297 1.22-.34.972-1.02-.248-.681-.729-.85-1.545-.553-.816.297-1.983-.049-1.735.631z"/><path fill="#FFF" d="M379.564 62.123c.851-1.171.386-3.858-1.02-4.88-1.405-1.02-1.928-1.64-2.78-.47-.85 1.171-.592 2.158.813 3.18 1.405 1.02 2.136 3.341 2.987 2.17zM135.77 38.516c-.456.562-.294 1.916.38 2.463.676.546.921.87 1.377.307.455-.562.352-1.062-.323-1.608-.675-.547-.979-1.725-1.434-1.162z"/><g><path fill="#26B2C4" d="M383.748 159l40.037 1c8.857 2.014 12.233 5.36 10.129 10.04-2.104 4.678-8.951 7.998-20.54 9.96l-16.618-2.261-13.008-18.74zm-187.67 2.26l55.936-1.26c8.856 2.014 12.233 5.36 10.128 10.04-2.104 4.678-8.95 7.998-20.54 9.96h-32.516c-15.062.588-25.351-2.12-30.867-8.126-5.517-6.006.436-9.544 17.859-10.613z" opacity=".355"/><path fill="#26B2C4" d="M231 160h248.68c21.88 2.347 29.502 5.86 22.867 10.538-6.635 4.678-25.202 7.832-55.7 9.462H231v-20z" opacity=".355"/><path fill="#107582" d="M279.805 91.82c1.094 0 7.084-.06 7.084-1.308s-1.29-4.76-2.384-4.76c-1.095 0-5.41 3.512-5.41 4.76 0 1.248-.385 1.308.71 1.308z"/><path fill="#107582" d="M282.205 77.727c.93-.417 2.008.02 2.424.98 1.384 3.199 2.29 5.324 2.72 6.375.448 1.1 1.855 4.164 4.22 9.19.44.934.07 2.061-.827 2.518a1.77 1.77 0 0 1-.157.071c-.955.375-2.021-.126-2.382-1.12a1.979 1.979 0 0 1-.042-.13c-.882-3.079-1.458-4.95-1.728-5.611-.297-.727-1.973-4.013-5.03-9.857-.439-.839-.141-1.89.665-2.347.045-.025.09-.048.137-.069z"/><g transform="translate(281 45)"><path fill="#673AB7" d="M29.915 4.395C32.056 1.512 33.117 0 37.204 0c2.033 0 4.713.547 5.949 1.83 1.072 1.115.7 1.77 1.716 1.98.097.02 1.249-.289 3.009.585 4.109 2.042.742 6.3 3.257 8.556 1.099.986 3.55 1.414 5.785 3.352 5.28 4.578 1.647 10.108 5.98 15.026 2.282 2.589 6.357.102 10.381-1.796 2.825-1.332 12.418 3.902 13.858 0 1.421-3.852 7.366 4.206 3.667 11.16-3.667 6.895-11.932 6.408-14.711 6.895-3.174.556-12.464 3.215-19.52-.635-7.936-4.328-13.597-15.234-15.159-14.678-2.95 1.051-5.958-.547-8.186-2.742-3.287-3.238-4.02-10.68-3.699-12.3.731-3.697-.56-6.571-.864-7.209-1.13-2.375-.894-2.745 1.248-5.629z"/><path fill="#D8D8D8" d="M3.457 41.79c1.052.186 1.626.912 2.948 1.136.62.105.98.669 1.217.588.32-.11.433-.935.78-1.32.448-.497.968-1.518.234-1.687-.809-.187-1.791-.633-2.29-1.24-1.128-1.373-3.119-2.578-4.827-.878-.54.538.16 2.43.75 3.01.606.596.51.272 1.188.392z"/><path fill="#C1A7EF" d="M44.53 71.383c1.137 1.273 20.829 18.458 23.286 12.282 4.785-12.024-6.413-34.073-7.472-37.001-.79-2.186-4.477-10.761-6.035-13.55-2.376-4.252-6.238-11.407-9.376-12.042-2.122-.43-4.284 1.096-5.462 3.49-.724 1.473-1.04 3.809-1.725 6.378-1.662 6.236-7.069 10.714-9.716 13.24-3.278 3.127-14.572-3.775-19.224-3.775-.357 0-.806 2.354-.806 3.131 0 .574 14.252 12.358 21.642 9.313 3.793-1.563 6.866-3.887 9.295-6.185 1.062 4.22.425 9.285-.816 16.278 1.528 3.938 6.14 8.14 6.41 8.441z"/><path fill="#AD90E2" d="M43 37v11.894c0 2.902-.723 12.186-3.532 17.106-.762-1.004-1.584-2.249-2.468-3.734 1.645-6.423 1.985-11.764 1.02-16.023 1.98-1.902 2.497-2.672 3.413-4.6.588-1.24 1.11-2.788 1.567-4.643z"/><path fill="#DEDEDE" d="M37 19.71L41.29 15c.639 1.949 1.141 3.273 1.507 3.973.367.7 1.1 1.55 2.203 2.55-.51.974-1.018 1.579-1.528 1.812-.51.233-1.802.455-3.88.665a133.002 133.002 0 0 1-1.079-2.478c-.25-.596-.755-1.2-1.513-1.813z"/><path fill="#F1F1F1" d="M36.301 20.984c1.728-.148 2.75-1.973 3.622-3.57.294-.54-.132-1.393.184-1.878.823.406 1.433-.48 1.765-1.894.579-2.46-.946-1.966-1.765-1.39-.369-.863-1.17-1.382-2.077-1.907-1.37-.794-4.97.685-6.678-1.345-.443.794-.17.978-.143 3.65.004.434-.166.95-.2 1.528-.123 2.16.96 3.118 1.796 4.306 1.01 1.435 1.47 2.673 3.496 2.5z"/><circle cx="41.5" cy="14.5" r="1" fill="#5A5A5A"/></g><g transform="translate(163 45)"><path fill="#107582" d="M106.131 35.606L118.23 24l.77 24.706h-17z"/><path fill="#1C9EAE" d="M247.183 36.529c6.053-3.032 10.24-7.514 16.016-4.566 5.777 2.95 5.17 5.903 5.336 9.251.11 2.232-.368 7.455-1.437 15.67h-26.944c-12.002.446-17.706-.143-17.112-1.768.89-2.439 18.088-15.556 24.141-18.587z"/><path fill="#1C9EAE" d="M227.862 34.415c3.682-4.327 8.93-6.684 12.093-4.708 3.163 1.975 2.997 7.87 3.163 11.218.11 2.232-.944 5.932-3.163 11.101l-18.51 1.768c-.593-.376-.593-1.377 0-3.003.89-2.438 2.735-12.05 6.417-16.376z"/><path fill="#057B8A" d="M30 68h89v52l-89-1.348zm172 0h89v50.422l-89.99 2.444z"/><circle cx="71" cy="104" r="31" fill="#26B2C4"/><circle cx="243" cy="104" r="31" fill="#26B2C4"/><circle cx="71.5" cy="104.5" r="19.5" fill="#AFF6FF" stroke="#E9F9FB" stroke-width="3"/><path fill="#0BCEE7" d="M124.555 110h60.157l6.47 11H119z"/><circle cx="243.5" cy="104.5" r="19.5" fill="#AFF6FF" stroke="#E9F9FB" stroke-width="3"/><path fill="#AFF6FF" d="M72.125 41.066c17.613-15.975 31.072-26.7 40.377-32.176 9.305-5.476 15.016-8.132 17.132-7.97l8.62 6.053c-8.36 5.166-14.378 9.344-18.053 12.534-3.675 3.19-11.857 11.336-24.545 24.437l-23.531-2.878z"/><path fill="#057B8A" d="M49 80.898c14.149-9.529 27.476-10.435 39.982-2.72s19.488 17.406 20.945 29.073c-4.464-10.098-12.675-17.687-24.633-22.766-11.958-5.08-24.056-6.276-36.294-3.587zm170 0c14.149-9.529 27.476-10.435 39.982-2.72s19.488 17.406 20.945 29.073c-4.464-10.098-12.675-17.687-24.633-22.766-11.958-5.08-24.056-6.276-36.294-3.587z" opacity=".313"/><path fill="#00BCD4" d="M95.528 44.02c9.412-16.444 22.473-29.14 39.184-38.087 0 0-6.04-3.977-8.814-3.977 0 0 1.935-.861 4.055-1.52 2.425.763 5.492.93 12.094 6.627-19.853 5.244-40.133 38.516-38.177 40.407 1.848 1.786 97.74-1.452 153.308-4.623 3.239-.185 7.457-1.138 10.389-.936 4.306.297 46.404 35.316 46.404 51.16 0 10.564-4.51 18.39-13.532 23.48-6.608-32.65-11.436-50.29-14.485-52.921-1.756-1.516-4.161-2.443-7.216-2.783-9.198-8.918-25.912-11.45-50.143-7.598-24.23 3.852-38.908 22.895-44.034 57.129h-57.769c-2.47-31.564-16.2-50.607-41.186-57.13-10.64-2.776-33.098-6.683-56.675 5.095-2.985 0-1.955-.704-1.218-1.335 8.957-7.674 31.562-12.003 67.815-12.988z"/><path fill="#0BCEE7" d="M80.795 75.76c22.31 9.393 31.964 24.483 28.96 45.272h12.374L127.598 110c-2.756-43.998-30.665-60-67.115-60C35.325 50 13.75 61.604 4.806 74.249-2.32 84.324-1.36 99.21 7.69 118.907h24.004c0-15.427 6.03-28.062 18.088-37.907 6.314-5.154 21.695-9.162 31.012-5.24zm151.008 0c-22.31 9.393-31.964 24.483-28.96 45.272h-12.374l-5.973-10.964c2.756-43.998 29.06-59.572 65.51-59.572 15.391 0 28.659 7.505 37.575 14.15 2.08 1.551 22.26 19.222 19.357 40.283-1.08 7.846-5.089 12.505-12.023 13.978h-14.69c.452-15.427-5.351-28.062-17.41-37.907-6.314-5.154-21.695-9.162-31.012-5.24z"/><path fill="#29DCF2" d="M30.84 49.47c13.325-4.903 27.025-7.68 41.1-8.328l24.939 1.394L95.288 44c-29.858 1.89-51.34 5.847-64.448 11.87-8.142 3.742-18.055 13.676-23.037 17.814-2.025 1.682-3.383 1.682-4.075 0 4.75-11.239 13.788-19.31 27.112-24.214z"/><path fill="#AFF6FF" d="M109.53 50.32c4.142 0 6.304-2.384 6.304-6.526 0-4.142-1.814-6.794-5.956-6.794-2.62 0-5.878 5.157-5.878 6.794 0 1.637 3.052 6.525 5.53 6.525z"/><path fill="#C1F5FC" d="M16.671 72.355c3.094 2.786 8.904-.874 12.154-4.484s6.603-8.199 3.51-10.985c-3.095-2.786-9.57-1.14-12.82 2.47-3.25 3.61-5.938 10.213-2.844 12.999z"/></g></g></g></svg>