<svg xmlns="http://www.w3.org/2000/svg" width="36" height="36">
  <g fill="none" fill-rule="evenodd"><path fill="#00BCD4" fill-rule="nonzero" d="M15.3 0H1.845l3.62 20.308 12.996-2.262z"/><path stroke="#673AB7" stroke-linecap="round" d="M17.927 17.671L5.84 19.774 2.397.462"/><path fill="#00BCD4" fill-rule="nonzero" stroke="#673AB7" d="M18.942 26.222l-8.838-3.633a2.655 2.655 0 0 0-3.494 1.51c-.48 1.259.248 2.811 1.464 3.395L18.86 32.91"/><path fill="#00BCD4" fill-rule="nonzero" stroke="#673AB7" d="M16.173 27.145l-8.838-3.633a2.655 2.655 0 0 0-3.494 1.51c-.481 1.259.248 2.812 1.464 3.395l10.785 5.417"/><path fill="#C3F8FF" fill-rule="nonzero" d="M30.714 18.986a8.374 8.374 0 0 0-6.814.438l-8.806 4.63a2.72 2.72 0 0 0-1.157 3.643l-.533.371-8.838-3.633a2.655 2.655 0 0 0-3.494 1.51c-.481 1.259.248 2.812 1.464 3.395l10.785 5.417a3.02 3.02 0 0 0 2.612.045l13.797-6.333L36 30.975V20.947l-5.286-1.961z"/><path stroke="#673AB7" stroke-linecap="round" d="M35.538 30.293l-5.822-2.327-13.978 6.415c-.33.154-.697.234-1.064.234-.396 0-.792-.094-1.145-.271L2.743 28.927c-1.045-.502-1.62-1.817-1.24-2.818a2.181 2.181 0 0 1 2.052-1.414c.288 0 .567.056.834.166l9.073 3.73 1.068-.745-.183-.359a2.269 2.269 0 0 1 .962-3.025l8.805-4.63a7.957 7.957 0 0 1 3.685-.909c.943 0 1.87.166 2.755.495l4.984 1.85"/><path fill="#FFF" fill-rule="nonzero" d="M9.695 2.77c-.237 0-.478.019-.72.058-2.26.373-3.773 2.407-3.378 4.543.352 1.907 2.106 3.25 4.088 3.25.237 0 .478-.019.72-.058 2.26-.373 3.773-2.407 3.378-4.543-.352-1.907-2.106-3.25-4.088-3.25z"/><ellipse cx="11.116" cy="13.813" fill="#FFF" fill-rule="nonzero" rx="1.885" ry="1.878" transform="rotate(-9.939 11.116 13.813)"/><path fill="#00BCD4" fill-rule="nonzero" d="M4.66.462h13.485L25.23 15.37l-10.99 5.245z"/><path stroke="#673AB7" stroke-linecap="round" d="M14.448 27.664a1.841 1.841 0 0 0 2.423.719l5.654-2.857"/><path fill="#00BCD4" fill-rule="nonzero" d="M18.981 1.846L18.103 0H4.953l.877 1.846z"/><path stroke="#673AB7" stroke-linecap="round" d="M18.145.462L25.23 15.37l-10.99 5.245L4.66.462"/><path fill="#FFF" fill-rule="nonzero" d="M19.205 13.052a1.846 1.846 0 1 0-3.333 1.587 1.846 1.846 0 0 0 3.333-1.587zm-1.148-8.178c-.712-1.328-2.201-2.105-3.753-2.105a4.56 4.56 0 0 0-1.782.36c-2.072.877-2.95 3.08-1.964 4.92.712 1.329 2.2 2.105 3.752 2.105a4.56 4.56 0 0 0 1.783-.36c2.071-.877 2.95-3.08 1.964-4.92z"/></g>
</svg>